<svg width="16" height="16" viewBox="0 0 16 16" fill="none" xmlns="http://www.w3.org/2000/svg">
<path d="M12.6666 2.66666H3.33331C2.80288 2.66666 2.29417 2.87737 1.9191 3.25244C1.54403 3.62752 1.33331 4.13622 1.33331 4.66666V11.3333C1.33331 11.8638 1.54403 12.3725 1.9191 12.7475C2.29417 13.1226 2.80288 13.3333 3.33331 13.3333H12.6666C13.1971 13.3333 13.7058 13.1226 14.0809 12.7475C14.4559 12.3725 14.6666 11.8638 14.6666 11.3333V4.66666C14.6666 4.13622 14.4559 3.62752 14.0809 3.25244C13.7058 2.87737 13.1971 2.66666 12.6666 2.66666V2.66666ZM12.3933 3.99999L8.47331 7.91999C8.41134 7.98248 8.3376 8.03207 8.25636 8.06592C8.17512 8.09976 8.08799 8.11719 7.99998 8.11719C7.91197 8.11719 7.82483 8.09976 7.74359 8.06592C7.66236 8.03207 7.58862 7.98248 7.52665 7.91999L3.60665 3.99999H12.3933ZM13.3333 11.3333C13.3333 11.5101 13.2631 11.6797 13.1381 11.8047C13.013 11.9298 12.8435 12 12.6666 12H3.33331C3.1565 12 2.98693 11.9298 2.86191 11.8047C2.73688 11.6797 2.66665 11.5101 2.66665 11.3333V4.93999L6.58665 8.85999C6.96165 9.23452 7.46998 9.4449 7.99998 9.4449C8.52998 9.4449 9.03831 9.23452 9.41331 8.85999L13.3333 4.93999V11.3333Z" fill="white"/>
</svg>
