<svg width="16" height="16" viewBox="0 0 16 16" fill="none" xmlns="http://www.w3.org/2000/svg">
<path fill-rule="evenodd" clip-rule="evenodd" d="M9.86201 9.862C11.4073 8.31666 12.2687 6.88133 12.7473 5.81333C13.1653 4.88066 12.8373 3.78 11.9793 2.922L11.7827 2.726L10.2827 5.08333C10.936 5.53133 11.3193 6.37866 10.9627 7.22466C10.692 7.86533 10.2293 8.71333 9.47134 9.47133C8.71334 10.2293 7.86534 10.6913 7.22468 10.962C6.37868 11.3193 5.53135 10.9367 5.08335 10.2827L2.72601 11.7827L2.92201 11.9793C3.78001 12.8373 4.88068 13.1647 5.81335 12.7473C6.88135 12.2687 8.31668 11.4073 9.86201 9.862V9.862ZM13.964 6.358C13.422 7.568 12.47 9.13933 10.8047 10.8047C9.14001 12.47 7.56801 13.422 6.35801 13.9647C4.75801 14.6813 3.08468 14.0267 1.97935 12.922L1.78268 12.726C1.64142 12.5848 1.53368 12.4137 1.46741 12.2254C1.40114 12.037 1.37803 11.8361 1.39978 11.6376C1.42154 11.4391 1.48761 11.248 1.59312 11.0785C1.69862 10.9089 1.84087 10.7652 2.00935 10.658L4.97601 8.77133C5.05471 8.72136 5.143 8.68845 5.23521 8.67472C5.32741 8.66099 5.42147 8.66675 5.5113 8.69163C5.60114 8.71651 5.68476 8.75995 5.75677 8.81915C5.82878 8.87835 5.88757 8.952 5.92935 9.03533L6.14068 9.45733C6.28468 9.74533 6.53868 9.804 6.70601 9.734C7.24135 9.508 7.92668 9.13 8.52868 8.52866C9.13001 7.92666 9.50801 7.24133 9.73401 6.706C9.80468 6.53866 9.74534 6.28466 9.45734 6.14066L9.03535 5.92933C8.95196 5.88761 8.87825 5.82887 8.81898 5.75689C8.75971 5.68491 8.7162 5.6013 8.69126 5.51145C8.66631 5.42161 8.66049 5.32753 8.67417 5.2353C8.68786 5.14307 8.72073 5.05473 8.77068 4.976L10.658 2.00933C10.7652 1.84085 10.9089 1.69861 11.0785 1.5931C11.248 1.4876 11.4391 1.42153 11.6376 1.39977C11.8361 1.37801 12.037 1.40112 12.2254 1.46739C12.4138 1.53367 12.5848 1.64141 12.726 1.78266L12.922 1.97933C14.0273 3.084 14.6813 4.75733 13.964 6.358V6.358Z" fill="white"/>
</svg>
